<?xml version="1.0" encoding="UTF-8" standalone="no"?>
<svg
   version="1.1"
   id="Layer_1"
   x="0px"
   y="0px"
   width="100%"
   viewBox="0 0 1002 564"
   enable-background="new 0 0 1002 564"
   xml:space="preserve"
   sodipodi:docname="darkAboutBackground.svg"
   inkscape:export-filename="darkAboutBackground.svg"
   inkscape:export-xdpi="96"
   inkscape:export-ydpi="96"
   inkscape:version="1.3.2 (091e20e, 2023-11-25, custom)"
   xmlns:inkscape="http://www.inkscape.org/namespaces/inkscape"
   xmlns:sodipodi="http://sodipodi.sourceforge.net/DTD/sodipodi-0.dtd"
   xmlns="http://www.w3.org/2000/svg"
   xmlns:svg="http://www.w3.org/2000/svg"><defs
   id="defs47" /><sodipodi:namedview
   id="namedview47"
   pagecolor="#ffffff"
   bordercolor="#000000"
   borderopacity="0.25"
   inkscape:showpageshadow="2"
   inkscape:pageopacity="0.0"
   inkscape:pagecheckerboard="0"
   inkscape:deskcolor="#d1d1d1"
   inkscape:zoom="1.1656687"
   inkscape:cx="477.83733"
   inkscape:cy="322.13271"
   inkscape:window-width="1920"
   inkscape:window-height="1009"
   inkscape:window-x="1912"
   inkscape:window-y="46"
   inkscape:window-maximized="1"
   inkscape:current-layer="layer1" />















































<g
   inkscape:groupmode="layer"
   id="layer1"
   inkscape:label="Layer 1"><rect
     style="fill:#34342f"
     id="rect47"
     width="1030.0245"
     height="579.91956"
     x="-13.074538"
     y="-9.1257353"
     inkscape:export-filename="darkAboutBackground.svg"
     inkscape:export-xdpi="96"
     inkscape:export-ydpi="96" /><path
     fill="#b7d1eb"
     opacity="1"
     stroke="none"
     d="m 728,565 c -61.02087,0 -122.04181,0 -183.51196,-0.37024 -0.54828,-0.85754 -0.55664,-1.38653 -0.75928,-1.82605 C 531.33807,535.92462 519.1842,508.93219 506.43369,482.22467 498.48318,465.57138 490.3407,448.93146 481.00409,433.03763 468.80341,412.26825 455.18152,392.3345 438.69623,374.60931 428.617,363.77203 418.9234,352.39148 407.71506,342.82696 383.70663,322.3396 358.67438,303.05774 334.34872,282.93481 310.0524,262.83612 288.57797,239.79765 267.98999,216.04518 247.31723,192.19492 227.14001,167.86525 207.78081,142.9416 191.28169,121.70012 175.90375,99.556137 160.67831,77.366425 147.2265,57.761589 134.71751,37.51133 121.68743,17.614685 117.9798,11.953224 112.6927,4.1051612 108.78678,-1.4264418 c 2.37056,0 5.65103,0 8.50856,0.343741 11.44045,14.7553578 22.78855,31.5251048 33.63238,46.0187548 25.29849,33.813458 50.28831,67.860016 75.80588,101.506756 21.94818,28.94025 46.0009,56.12946 72.55308,80.91206 10.39102,9.6985 22.04746,18.26396 33.97608,26.04462 22.7315,14.82707 48.31027,23.81929 73.5245,33.3271 33.75455,12.72806 66.16449,27.91123 96.21143,48.09931 26.10116,17.53692 52.28903,34.9743 75.4144,56.36325 23.22735,21.48331 45.15582,44.30215 64.37554,69.53161 15.31006,20.09729 29.86725,40.78421 45.61768,60.52399 9.60437,12.03705 20.86243,22.75134 31.31928,34.11359 2.86621,3.11444 5.52203,6.42248 8.27441,9.64166 z"
     id="path1"
     sodipodi:nodetypes="cccsssssssssccsssscsssssc"
     style="fill:#42413c;fill-opacity:1" /><path
     fill="#b7d1eb"
     opacity="1"
     stroke="none"
     d="m 1003,188 c 0,26.68756 0,53.37512 -0.4203,80.52362 -2.0528,0.16888 -3.68779,-0.11053 -5.31768,-0.41711 -26.75341,-5.03159 -53.63018,-9.4971 -80.21954,-15.28296 -20.90527,-4.549 -40.96503,-12.28606 -58.34534,-24.99237 C 836.90686,211.90089 817.61792,192.99116 799.34625,173.17697 784.20026,156.75229 768.0047,141.92906 747.1413,133.13037 715.27454,119.69132 683.33588,106.42294 651.45624,93.014366 629.79694,83.904427 609.83081,71.992455 593.5874,54.857079 584.12866,44.878929 575.62512,33.954723 567.15369,23.095795 561.67065,16.067427 556.41573,5.5063934 551.39339,-1.8813996 c 11.35425,0 22.25348,0.3033052 34.22876,0.6016202 14.13104,13.0537384 30.32988,26.3188614 46.96281,34.2911934 29.07666,13.936725 58.79932,26.519012 88.04102,40.120758 16.88092,7.852157 33.84057,15.750305 49.88653,25.130279 22.51508,13.161709 44.07038,28.100049 68.31073,38.003279 24.12549,9.85629 48.40131,19.50499 73.12885,27.67848 21.58624,7.13514 43.87671,12.15154 65.8894,17.97821 8.3382,2.20708 16.76959,4.06209 25.15851,6.07758 z"
     id="path2"
     sodipodi:nodetypes="cccsssssssccssssssc"
     style="fill:#42413c;fill-opacity:1" /><path
     fill="#b7d1eb"
     opacity="1"
     stroke="none"
     d="m 1003,438 c 0,16.68756 0,33.37512 -0.3564,50.46799 -11.57988,-4.64017 -22.87474,-9.53348 -34.01158,-14.76337 -22.02802,-10.34439 -43.23328,-22.15833 -62.92407,-36.5264 -26.40876,-19.27008 -49.45398,-42.39371 -73.50995,-64.36294 -12.27405,-11.20932 -24.60071,-22.38062 -37.29328,-33.10797 -24.97937,-21.11182 -53.67303,-36.18949 -83.00634,-50.1669 -21.93592,-10.45255 -44.18311,-20.327 -65.63099,-31.70432 -16.11413,-8.54794 -31.84741,-18.16148 -46.55328,-28.9346 -21.6922,-15.89116 -42.4353,-33.09253 -63.37005,-49.99909 C 514.64905,161.38194 490.06424,149.41048 463.65814,141.26283 434.746,132.34193 405.56705,124.28262 376.48032,115.93156 339.78299,105.39545 308.81265,85.767258 282.35394,58.31181 266.31137,41.66489 249.16708,26.082001 232.61305,9.923474 c -2.78633,-2.719766 -7.21078,-8.96945421 -9.73619,-11.9565232 9.35424,-3e-6 17.34358,-3.3363604 27.18568,-2.9852444 0.9802,0.994378 4.82557,8.2371366 5.47259,8.6166746 16.50021,9.678907 32.79455,19.742281 49.60797,28.846287 29.6083,16.032078 62.18713,24.4687 93.74191,35.48418 24.41339,8.522499 48.1496,18.497879 70.27997,31.945229 24.58569,14.939303 46.66321,33.071353 66.74933,53.643683 17.80658,18.23758 35.77172,36.2565 57.44836,50.09352 27.12463,17.31462 55.74982,31.78925 84.73706,45.63355 19.37055,9.25136 38.61359,18.77018 57.89813,28.20124 24.27546,11.87189 45.23981,28.51258 65.67408,45.87223 19.5133,16.57721 38.56292,33.71521 58.38769,49.90713 27.6283,22.5654 58.95258,38.59336 92.83472,49.5521 C 969.50024,428.1485 986.29224,432.94403 1003,438 Z"
     id="path3"
     sodipodi:nodetypes="ccssssssssssssccsssssssssssc"
     style="fill:#42413c;fill-opacity:1" /><path
     fill="#b7d1ea"
     opacity="1"
     stroke="none"
     d="m 183.48347,-1.8813966 c 5.35494,-3e-6 9.95159,0.90991267 15.81797,1.24989467 1.76928,1.86781503 5.23404,5.42945993 6.57069,6.88492393 9.11542,9.925768 18.80034,19.384933 27.28948,29.818119 19.60855,24.099029 38.28868,48.957054 58.03984,72.935159 12.09747,14.6864 26.31756,27.22914 43.34445,36.35682 18.29367,9.8068 37.9422,15.17089 58.19446,18.61728 30.2929,5.15506 60.66323,9.85878 90.94027,15.10289 25.38959,4.39762 47.1326,16.17388 66.87906,32.66344 17.83026,14.88936 36.18427,29.2863 55.30445,42.45233 14.591,10.04734 30.31176,18.72214 46.29577,26.41669 25.48053,12.26599 51.57807,23.254 77.45075,34.7009 35.73559,15.81064 66.91717,38.18158 94.6557,65.5242 22.06415,21.74926 44.08691,43.54059 66.12262,65.31866 13.42022,13.26328 28.23211,24.8385 44.58343,34.1362 14.7298,8.37564 29.99677,15.84888 45.28522,23.18137 7.27081,3.48712 15.14276,5.72098 22.74237,8.52252 v 53 c -6.3504,0 -12.70612,0 -19.58911,-0.33917 -7.81268,-4.93146 -15.06696,-9.57416 -22.38983,-14.10608 -17.70038,-10.95435 -35.62689,-21.89105 -49.80463,-37.21979 -15.20856,-16.44321 -29.37512,-33.91339 -43.1958,-51.56229 -21.12244,-26.97329 -41.94464,-54.16156 -67.27991,-77.4371 -15.60241,-14.33401 -32.11365,-27.67828 -51.25805,-36.88254 -28.4607,-13.68338 -57.30054,-26.59536 -86.16504,-39.41684 -25.77436,-11.44885 -50.64459,-24.51327 -73.55884,-40.94189 -14.30316,-10.25482 -27.92261,-21.48273 -41.62079,-32.55605 -11.48712,-9.28593 -23.74628,-17.03822 -37.85901,-21.68707 -21.35663,-7.03506 -43.68411,-8.09088 -65.7417,-10.84198 -21.0795,-2.62909 -42.26343,-4.66788 -63.19107,-8.2094 -30.91171,-5.23112 -58.34869,-18.0509 -80.71341,-40.62654 C 277.3143,129.63481 259.48987,101.89329 240.40576,75.078812 225.28683,53.835697 209.35406,33.171394 193.7533,12.272026 190.9081,8.46051 186.40484,1.8732454 183.48347,-1.8813966 Z"
     id="path4"
     sodipodi:nodetypes="cccssssssssssssscccssssssssssssssc"
     style="fill:#42413c;fill-opacity:1" /><path
     fill="#b7d1eb"
     opacity="1"
     stroke="none"
     d="m 797.46863,565 c -4.29785,-4.94946 -7.99494,-10.00818 -11.9787,-14.83002 -19.37158,-23.44647 -38.84546,-46.80832 -58.23413,-70.24066 -21.74768,-26.28323 -43.65283,-52.44897 -68.68707,-75.7149 -18.79743,-17.46964 -39.46656,-32.58802 -61.03901,-46.48478 -13.97448,-9.00225 -27.68231,-18.42202 -41.73089,-27.30481 -21.62946,-13.67602 -42.98224,-27.89004 -65.31745,-40.32162 -22.81085,-12.69626 -48.16137,-19.04883 -73.4667,-25.0687 -26.04282,-6.19525 -52.23639,-11.95004 -76.44809,-24.01681 -14.09158,-7.02309 -26.78424,-16.08275 -38.48209,-26.52953 -22.53683,-20.1266 -42.02841,-43.06648 -60.33229,-66.97714 C 222.25262,122.0384 203.49007,96.002998 184.18964,70.376015 167.49184,48.204758 150.48895,26.263304 133.63448,4.209906 c -0.59765,-0.781997 -1.8088,-3.49446432 -2.36094,-4.68263432 2.00987,-0.347103 4.20318,-0.95371348 6.82093,-0.64863748 9.43159,10.66934 19.34858,23.1098948 27.6533,33.8981528 16.62169,21.592377 32.65239,43.638901 49.004,65.440231 13.56522,18.086302 26.92972,36.335972 40.95453,54.061182 14.1329,17.86183 29.10303,34.9922 46.16641,50.26268 20.68292,18.50964 44.30722,31.53071 71.29886,37.2321 28.25278,5.96777 56.8638,10.25737 85.34695,15.11185 28.20481,4.80706 53.70585,16.13229 77.50663,31.65124 13.64807,8.89902 26.83831,18.58658 40.94989,26.67066 31.45947,18.02203 63.42028,35.16653 95.07745,52.84661 26.91864,15.03376 52.63623,31.85807 75.3277,52.90217 23.47381,21.76962 44.552,45.75894 63.67029,71.38137 15.90948,21.32209 31.03454,43.23093 46.40643,64.95114 2.14319,3.02826 3.70965,6.4646 5.54309,9.71198 z"
     id="path6"
     sodipodi:nodetypes="ccsssssssssssccsssssssssssscc"
     style="fill:#42413c;fill-opacity:1" /><path
     fill="#b7d1eb"
     opacity="1"
     stroke="none"
     d="m 333,565 c -22.68756,0 -45.37512,0 -68.50272,-0.46783 -0.13925,-17.16736 -2.16626,-33.62458 -5.56949,-49.94104 -9.90997,-47.51246 -32.31997,-88.32721 -67.68029,-121.36762 -18.04973,-16.86554 -38.11966,-31.573 -57.32238,-47.19943 C 117.68684,332.81 100.37201,320.71866 85.406883,306.19961 71.89975,293.09509 60.165539,277.92816 49.090881,262.62744 40.578468,250.86673 33.329979,237.93266 27.26582,224.71892 18.114492,204.77823 15.787256,182.80084 10.977907,161.57616 7.900399,147.99448 2.6267696,134.52164 -0.71575343,121 c 0,-33.687561 -1.92390927,-67.981732 -1.58883627,-102.076058 6.948459,9.91435 17.5942907,20.61459 23.7316487,31.211403 12.101544,20.894639 20.692265,43.264275 24.583973,67.119445 3.821365,23.42398 6.710743,47.0011 9.931522,70.52162 2.859833,20.88457 9.239308,40.6485 20.421589,58.48307 17.784401,28.36424 39.682967,53.425 64.987647,75.26683 28.56183,24.65322 57.90222,48.402 86.66013,72.83123 20.15327,17.11978 37.70033,36.80155 51.5583,59.27628 11.15811,18.09613 21.32459,36.90921 30.51257,56.08386 C 318.6904,527.68103 325.43533,546.53693 333,565 Z"
     id="path7"
     sodipodi:nodetypes="ccsssssssccssssssssc"
     style="fill:#42413c;fill-opacity:1" /><path
     fill="#b7d1eb"
     opacity="1"
     stroke="none"
     d="m 622.93843,-2.6396606 c 32.68756,-2e-6 64.46521,0.9099136 97.84033,1.1722026 1.40332,0.68540901 4.06334,3.895199 4.81041,4.253062 17.84027,8.546253 35.5528,17.375437 53.5716,25.527678 16.48266,7.457233 33.61407,12.820366 52.09094,11.576733 13.91687,-0.936711 27.82733,-1.981118 41.73193,-3.086998 24.97284,-1.986176 49.95935,-1.712456 74.52472,3.071251 C 966.21313,43.516727 984.51752,49.215866 1003,54 c 0,26.687561 0,53.37512 -0.3726,80.47649 -7.64937,-1.90549 -14.93441,-4.19957 -22.20186,-6.54813 C 933.83679,112.87263 886.3089,102.13218 837.72937,95.770691 825.82727,94.212105 813.54156,91.767601 802.67352,86.937325 781.30438,77.439766 760.89966,65.793983 739.91596,55.400177 724.88898,47.956875 709.65601,40.911396 694.35937,34.034687 672.22064,24.082142 649.92682,14.475262 627.75452,4.596531 c -1.48987,-0.663803 -3.57543,-6.0130126 -4.81609,-7.2361916 z"
     id="path10"
     sodipodi:nodetypes="cccssssccssssssc"
     style="fill:#42413c;fill-opacity:1" /><path
     fill="#b8d2ea"
     opacity="1"
     stroke="none"
     d="m 947,565 c -19.02087,0 -38.04181,0 -57.59363,-0.34094 -4.53155,-5.84937 -8.74078,-11.21967 -12.49695,-16.89002 C 860.29376,522.68591 843.935,497.43198 827.24249,472.40042 807.89447,443.3866 784.37225,418.15289 756.90631,396.68271 729.86883,375.54746 699.39728,360.1395 669.02356,344.57788 644.0177,331.76645 618.65027,319.55615 594.34021,305.52496 575.22473,294.49194 557.56384,280.95724 539.09424,268.7804 c -12.78491,-8.42896 -25.81085,-16.33744 -40.66153,-21.01139 -21.59689,-6.79719 -44.0574,-8.19116 -66.18527,-11.70654 -20.64878,-3.28043 -41.44992,-5.92172 -61.84873,-10.37872 -28.46469,-6.21938 -52.5672,-20.82549 -73.56393,-41.08768 -27.98825,-27.00913 -49.8508,-58.79041 -72.00312,-90.375954 -19.09198,-27.221985 -37.04788,-55.272972 -59.6846,-79.857156 -3.77151,-4.095987 -8.60372,-11.7723756 -11.96689,-16.2443586 3.6929,-10e-7 8.44738,1.3648725 12.63273,1.7079195 3.03353,3.176283 6.40596,7.4642981 8.86099,10.3702351 9.43591,11.169028 19.36983,21.971701 28.09657,33.672797 13.20604,17.707077 25.53369,36.068267 38.27925,54.119972 17.93326,25.399115 35.89246,50.750575 58.28058,72.611675 16.62238,16.23107 35.85712,27.89993 57.935,34.92181 22.79608,7.25032 46.47498,9.67088 70.07346,12.37592 16.9822,1.94664 34.01364,3.47282 51.03225,5.09059 27.44458,2.60882 51.43729,13.17573 73.21738,29.98605 16.41589,12.67009 33.23523,24.99614 50.86029,35.87984 27.78882,17.15991 57.65631,30.40066 87.75201,43.04602 30.84503,12.96023 61.10059,26.90124 87.70954,47.8121 16.18585,12.71973 31.4779,26.39319 44.18689,42.41586 19.92614,25.12162 38.77008,51.10776 57.85485,76.8888 15.2193,20.55926 32.03766,39.4798 52.87458,54.58264 4.90283,3.55365 9.45819,7.58673 14.17346,11.39917 z"
     id="path11"
     sodipodi:nodetypes="ccsssssssssssscccsssssssssssssc"
     style="fill:#42413c;fill-opacity:1" /><path
     fill="#b7d1eb"
     opacity="1"
     stroke="none"
     d="m 501.63513,-1.4264458 c 8.68759,4e-6 17.98179,0.75826709 27.18552,1.10258409 14.15046,21.82055771 28.23239,45.17055271 42.27011,66.37980071 12.48016,18.856079 28.18542,34.962561 48.81799,44.571731 21.07007,9.81294 42.99939,17.79863 64.63947,26.36464 17.94629,7.10387 36.36383,13.11789 53.9566,20.99119 27.86707,12.47135 48.52478,33.91839 67.65143,57.08101 10.34888,12.53258 20.70563,25.18982 32.27374,36.5541 17.80689,17.49324 39.72455,28.58537 63.83447,34.42805 19.98658,4.84342 40.32624,8.36554 60.6391,11.67856 13.24555,2.16034 26.72291,2.89917 40.09644,4.27478 0,16.02091 0,32.04178 -0.4452,48.55652 -5.21233,-0.15176 -9.98369,-0.76831 -14.74602,-1.44779 -28.17804,-4.02041 -55.94446,-9.5646 -82.9198,-19.09591 -30.76129,-10.86902 -56.14197,-29.49237 -78.41632,-52.61927 -14.7536,-15.31829 -28.53699,-31.56996 -42.78748,-47.37416 -16.65717,-18.47326 -36.73425,-32.391 -59.48791,-41.95352 -30.81885,-12.95198 -62.11371,-24.76839 -93.15546,-37.19409 -18.41052,-7.36957 -34.86975,-17.76231 -49.31018,-31.5056 -14.9942,-14.27032 -24.5022,-32.26416 -34.55658,-49.826652 -11.1648,-19.502071 -22.09583,-39.097349 -35.91666,-56.90873 -2.91226,-3.753172 -6.87857,-10.1740098 -9.62326,-14.0572438 z"
     id="path12"
     sodipodi:nodetypes="ccssssssssccsssssssssc"
     style="fill:#42413c;fill-opacity:1" /><path
     fill="#b7d1eb"
     opacity="1"
     stroke="none"
     d="M 96.107542,-0.97148593 C 101.1894,5.6590211 106.54545,14.097868 110.88281,20.923464 c 11.05855,17.402601 22.33266,34.694547 32.66071,52.528707 14.54387,25.113953 30.80203,48.979219 49.02635,71.529239 19.64793,24.31156 39.23082,48.67707 59.05742,72.84238 17.08319,20.82156 34.21524,41.61374 51.80377,62.00659 13.35724,15.48697 27.70087,30.12009 41.17777,45.50785 15.44357,17.63333 31.74578,34.73663 45.25399,53.78689 16.89902,23.83215 31.99106,49.03034 46.67231,74.32987 20.54382,35.40231 39.9913,71.44094 59.88974,107.21737 0.63415,1.14014 1.07025,2.39032 1.58691,3.95844 C 483.31244,565 468.62488,565 453.39285,564.65759 445.04922,551.1582 437.29672,537.97339 429.44076,524.85046 415.1673,501.00738 400.98248,477.10928 386.48093,453.40527 371.81775,429.43701 357.07855,405.5072 341.89181,381.86945 324.90439,355.42895 307.85754,329.00207 289.95068,303.18365 271.5708,276.68323 252.28078,250.80656 233.09561,224.87404 212.13008,196.53497 190.0361,168.99391 169.96507,140.04352 157.6037,122.21355 147.37656,102.7692 137.51105,83.378189 125.57268,59.912903 114.06501,36.291107 98.613907,14.839134 95.44545,10.440116 91.794656,3.1974652 88.938432,-1.4264418 c 2.041664,0 4.689946,0.45495787 7.16911,0.45495587 z"
     id="path14"
     sodipodi:nodetypes="csssssssssccsssssssscc"
     style="fill:#42413c;fill-opacity:1" /><path
     fill="#b7d1ea"
     opacity="1"
     stroke="none"
     d="m 1003,416.53134 c -21.77014,-5.64807 -43.76996,-11.05929 -65.2547,-18.0527 -29.62726,-9.64383 -57.18536,-23.7107 -81.30713,-43.69785 -14.32556,-11.87011 -28.17828,-24.32654 -41.97082,-36.8204 -18.35022,-16.62247 -35.1905,-35.05722 -56.40851,-48.23642 -14.39417,-8.94074 -28.93708,-17.78508 -44.06745,-25.36759 -31.6737,-15.8731 -63.98571,-30.47337 -95.64666,-46.37082 C 589.72675,183.616 565.54211,163.83136 546.47522,137.61864 528.89075,113.44383 511.05353,89.337944 489.14471,68.694366 467.06763,47.8922 441.74994,32.347359 413.39612,21.608847 392.32507,13.62855 368.75403,13.508016 348.53668,3.821432 c -2.81727,-1.3498167 -5.73074,-4.41568221 -7.595,-5.4906332 37.63095,-0.5526426 77.79062,-5.5458482 115.6384,3.0078342 1.38779,1.073518 2.19229,1.909039 3.13833,2.528334 16.13245,10.560772 30.24643,23.380479 42.58686,38.158397 16.92709,20.270569 30.67807,42.755817 43.6799,65.567606 17.42444,30.57125 41.37835,53.74234 73.3017,68.14765 28.81396,13.00225 58.15087,24.84396 87.23266,37.25514 21.51392,9.18147 42.43219,19.69195 60.39056,34.76181 14.48786,12.15759 27.60407,25.94308 41.42774,38.90075 12.98474,12.17121 25.8111,24.53516 39.22967,36.21381 16.69739,14.5322 35.61127,25.61829 56.31733,33.56046 20.89776,8.01574 42.53222,13.18786 64.60931,16.58914 C 979.97913,374.7912 991.49701,376.34744 1003,378 Z"
     id="path15"
     sodipodi:nodetypes="csssssssssacccssssssssscc"
     style="fill:#42413c;fill-opacity:1" /><path
     fill="#b7d1eb"
     opacity="1"
     stroke="none"
     d="m 157,565 c -22.35423,0 -44.70846,0 -67.557701,-0.46167 -0.418686,-3.62524 -0.487129,-6.80005 -0.243019,-9.95056 1.885521,-24.33527 4.477394,-48.63666 5.579773,-73.00601 1.1352,-25.09467 0.656006,-50.24045 -3.821091,-75.12046 C 88.155556,390.88782 84.213127,375.45612 73.356209,363.59943 64.552078,353.98456 54.341434,345.4722 43.920849,337.57037 31.184444,327.91241 18.178474,318.71478 7.750954,306.40848 c -1.99403,-2.3533 -6.6324548,-4.60494 -8.8956478,-6.73018 2e-6,-9.35422 -0.8578747,-18.27953 -0.5092717,-28.08883 4.098952,3.47852 10.8246995,7.33121 14.6075775,11.23331 9.588968,9.89109 18.479057,20.62519 28.996251,29.40848 12.700882,10.60703 26.790928,19.55045 40.278096,29.21619 9.5792,6.86502 19.155641,13.73388 28.908971,20.88299 0.85381,1.00904 1.48178,1.79172 2.21745,2.45496 16.00002,14.42355 28.58362,31.20718 35.96468,51.64691 1.6797,4.65146 3.71616,9.17411 5.58862,14.15375 2.78203,16.71231 6.64945,32.936 8.02504,49.36832 1.25038,14.93667 0.40618,30.14364 -0.65651,45.1506 C 161.33044,538.46088 158.81993,551.70599 157,565 Z"
     id="path20"
     sodipodi:nodetypes="ccsssssscccssccscssc"
     style="fill:#42413c;fill-opacity:1" /><path
     fill="#b7d1eb"
     opacity="1"
     stroke="none"
     d="m 55,565 -56.359161,0.64341 c 0,-82.68753 0.42893839,-166.34024 0.77659439,-249.4877 1.045844,-0.032 3.74346361,0.63558 4.36200961,1.15777 8.490743,7.16845 16.998055,14.31805 25.426238,21.55966 9.218201,7.92035 18.305511,15.97653 23.458462,27.38946 5.801853,12.8501 7.608444,26.53763 7.285598,40.38059 -0.599926,25.7236 -1.9188,51.42972 -2.832462,77.14688 -0.772495,21.74359 -1.425465,43.49167 -2.062775,65.23965 C 54.898624,554.34912 55.010975,559.67639 55,565 Z"
     id="path22"
     sodipodi:nodetypes="ccccsssssc"
     style="fill:#42413c;fill-opacity:1" /><path
     fill="#b8d2ea"
     opacity="1"
     stroke="none"
     d="m 69.67304,-0.89565763 c 2.700012,0 3.769766,-1.17530777 6.898695,-0.81206777 0.810295,1.26509804 3.966263,5.384915 4.556698,6.1185324 21.279507,26.439871 36.486237,56.299192 48.986847,87.6154 12.15483,30.449973 27.6501,59.059093 47.07001,85.422203 21.29205,28.90463 43.12831,57.40889 64.77641,86.05058 24.8728,32.90824 47.94705,67.0401 69.84168,101.98996 9.26193,14.78464 18.70739,29.45905 28.31915,44.01874 13.90463,21.06241 28.25516,41.83267 42.00671,62.99319 12.76059,19.63556 25.09244,39.5532 37.40253,59.47666 C 426.24689,542.84558 432.5249,553.9837 439,565 c -7.35425,0 -14.7085,0 -22.59509,-0.34998 -0.6998,-0.81958 -0.78675,-1.33984 -1.04615,-1.75146 C 395.49603,531.37659 376.06714,499.569 355.6001,468.44409 339.80704,444.42703 322.63626,421.31873 306.21658,397.71002 293.59659,379.5647 281.22876,361.24417 268.681,343.04834 257.8222,327.30176 247.08202,311.46689 235.90666,295.94666 218.42081,271.66241 200.64302,247.58792 182.93051,223.46747 168.33812,203.59593 153.87874,183.44276 143.92186,160.91939 133.78831,137.99635 125.68694,114.13306 117.49105,90.406746 108.74863,65.098236 97.654053,41.068073 82.627151,18.877934 78.64183,12.992838 73.542944,5.0675884 69.67304,-0.89565763 Z"
     id="path23"
     sodipodi:nodetypes="ccsssssssscccssssssssc"
     style="fill:#42413c;fill-opacity:1" /><path
     fill="#b8d2ea"
     opacity="1"
     stroke="none"
     d="m 407,565 c -7.02097,0 -14.0419,0 -21.58331,-0.35632 -1.129,-1.72248 -1.61203,-3.16224 -2.36475,-4.44361 -12.79636,-21.78448 -25.11243,-43.8739 -38.59775,-65.22436 -12.6777,-20.07181 -26.02127,-39.78488 -40.12707,-58.8761 -15.18653,-20.5539 -31.62433,-40.06906 -49.58557,-58.4596 -21.45543,-21.9682 -41.02646,-45.77368 -61.48291,-68.72165 -19.6908,-22.08911 -39.16388,-44.34729 -55.76592,-68.93179 C 124.94525,221.4061 113.91763,201.9182 108.98891,179.92403 103.87327,157.09578 100.22325,133.9348 96.103462,110.88874 89.884407,76.099403 76.68528,44.282742 56.145512,15.49367 52.833015,10.850793 48.936064,4.3239439 45.900519,-0.51652611 c 3.361286,0 6.760489,-0.37913152 10.699191,-0.0594705 1.203895,1.29984 2.798693,4.25229963 3.532004,5.14469163 20.448746,24.884892 35.052933,52.947651 44.328836,83.665093 5.38076,17.818522 9.46239,36.027772 14.20004,54.042412 9.49535,36.1055 28.53912,67.26274 50.87428,96.5443 17.63778,23.12323 36.11175,45.60666 54.00586,68.53695 15.23837,19.52713 30.08961,39.35596 45.2765,58.92377 16.31085,21.01599 33.23767,41.56677 49.13742,62.88611 26.85022,36.00235 52.1329,73.10882 75.41202,111.54104 C 398.17462,548.64593 402.46893,556.89465 407,565 Z"
     id="path24"
     sodipodi:nodetypes="cccsssssssscccsssssssc"
     style="fill:#42413c;fill-opacity:1" /><path
     fill="#b8d2ea"
     opacity="1"
     stroke="none"
     d="m 371,565 c -8.68756,0 -17.37512,0 -26.53238,-0.37878 -0.67877,-1.17908 -0.7952,-2.01795 -1.11032,-2.77405 -12.1098,-29.05396 -25.43616,-57.51822 -40.91412,-84.95563 -14.52784,-25.75317 -30.93473,-50.2561 -52.21,-70.8591 C 226.59215,383.1384 201.68112,361.56192 177.75043,338.95926 151.72865,314.38156 127.25147,288.43842 106.22606,259.23401 87.013908,232.54819 77.680916,202.90643 74.980667,170.59311 73.30899,150.58853 71.761345,130.53159 68.917534,110.67584 63.235653,71.004272 46.135784,36.289257 20.97488,5.347866 20.003428,4.153232 16.649263,-0.04168207 16.004861,-1.5022681 c 4.024544,0 9.603528,-0.037913 14.129219,0.3070799 2.513683,2.972398 5.922717,8.1752512 7.986339,10.7619032 19.451992,24.382183 34.527721,51.27697 41.585063,81.664829 5.507294,23.713596 8.980378,47.976986 12.038453,72.162836 4.010147,31.71567 15.344135,60.21988 34.744915,85.39007 12.26959,15.91831 25.11485,31.43464 38.39131,46.52472 17.24272,19.59821 35.02795,38.72675 52.84678,57.80805 15.22051,16.29886 31.08652,31.99869 46.18142,48.41012 19.16345,20.83481 36.70941,43.03192 51.71865,67.05848 14.27613,22.85296 28.04929,46.02716 41.6687,69.27966 C 362.40707,546.5921 366.46292,555.93701 371,565 Z"
     id="path25"
     sodipodi:nodetypes="cccssssssscccssssssssc"
     style="fill:#42413c;fill-opacity:1" /><path
     fill="#b7d1eb"
     opacity="1"
     stroke="none"
     d="m 242,565 c -20.68756,0 -41.37512,0 -62.54512,-0.42322 0.50404,-7.13959 1.55449,-13.84696 2.5081,-20.90478 0.10426,-0.77166 0.10392,-1.20765 0.28098,-1.95899 0.41264,-1.75101 0.51843,-3.23288 0.67251,-5.08026 0.0935,-1.12134 0.26288,-1.8477 0.33176,-2.96063 0.88742,-14.33946 1.70689,-28.37378 1.43967,-42.37369 -0.15514,-8.12817 -2.34969,-16.21741 -3.62445,-24.65485 -0.0379,-0.7695 -0.0779,-1.20834 -0.1111,-2.0563 -3.73845,-12.96707 -6.87188,-25.7533 -11.4419,-38.00357 -3.09801,-8.30444 -8.21399,-15.85605 -12.43559,-23.95712 -0.008,-0.21271 -0.0891,-0.63068 -0.22177,-0.94779 -5.64626,-7.51965 -10.72759,-15.11523 -16.80757,-21.80285 -5.04158,-5.54544 -11.25989,-10.02106 -17.00106,-14.94657 -0.0442,0.0241 0.0422,-0.0528 -0.0126,-0.37433 -1.02189,-1.09726 -1.98894,-1.87295 -3.08133,-2.85138 -0.33041,-0.45867 -0.58768,-0.64096 -1.06157,-1.02923 -1.37526,-1.10883 -2.58609,-1.93805 -3.97664,-3.05026 C 104.95298,350.2222 95.054008,343.26038 85.42244,335.94644 71.849716,325.63971 57.745373,315.86694 45.23328,304.37918 34.05167,294.11298 24.805096,281.7543 14.532716,270.47559 10.251271,265.77472 3.9158392,261.37238 -0.60852084,256.89277 c 2e-6,-8.35423 -0.75064016,-17.35188 -0.41057016,-26.14349 12.491001,14.26992 26.606154,30.07881 39.270037,44.33028 11.25729,12.66852 22.637856,25.49515 35.565338,36.34384 16.001618,13.42847 33.520176,25.0798 50.630586,37.14847 19.31912,13.62649 38.09048,27.94937 54.90678,44.56177 15.8053,15.61361 29.10085,33.31241 39.26043,53.1495 C 237.72287,483.59409 245.81808,523.14008 242,565 Z"
     id="path26"
     sodipodi:nodetypes="ccsssssccsccscccccsssccsssssc"
     style="fill:#42413c;fill-opacity:1" /><path
     fill="#b7d1eb"
     opacity="1"
     stroke="none"
     d="m 756.69669,-1.5780894 c 23.02088,-5e-6 46.04181,-5e-6 69.86389,0.244277 12.50256,0.39630802 23.44548,0.2786928 35.14738,0.3529838 1.4082,0.00894 4.18507,0.0209234 5.59535,-0.2939586 24.68756,-2e-6 49.1592,0.42169582 74.50443,2.5455032 15.27784,1.2802085 29.30408,5.837875 43.5296,8.874273 5.96143,1.272452 11.77942,3.216369 17.66266,4.855015 0,6.687641 0,13.375286 -0.4017,20.565861 -2.3308,0.03201 -4.31345,-0.284821 -6.18112,-0.93293 -28.86701,-10.017491 -58.71875,-14.080338 -89.12336,-14.491383 -9.62622,-0.13014 -19.27874,0.335739 -28.89172,0.955463 -9.59577,0.618616 -19.1413,2.252446 -28.73749,2.566227 -11.44354,0.374188 -23.00244,0.646134 -34.3595,-0.518543 -19.82708,-2.033266 -45.30663,-2.362317 -55.33294,-19.216668 z"
     id="path33"
     sodipodi:nodetypes="ccscsscccsssssc"
     style="fill:#42413c;fill-opacity:1" /><path
     fill="#F6FAF7"
     opacity="1.000000"
     stroke="none"
     d=" M115.062706,357.936981   C116.302856,358.736389 117.513687,359.565613 118.868721,360.693542   C119.012924,360.992279 118.975883,361.033783 118.620026,361.012665   C117.167854,360.003357 116.071533,359.015137 114.975212,358.026917   C114.975220,358.026917 115.033386,357.966797 115.062706,357.936981  z"
     id="path44"
     style="fill:#42413c;fill-opacity:1" /><path
     fill="#F6FAF7"
     opacity="1.000000"
     stroke="none"
     d=" M119.033142,360.973175   C119.362839,361.062714 119.620110,361.244995 119.950516,361.703674   C120.075851,361.906403 120.030876,361.961273 119.807587,361.858002   C119.334862,361.553772 119.132057,361.313446 118.975883,361.033783   C118.975883,361.033783 119.012924,360.992279 119.033142,360.973175  z"
     id="path45"
     style="fill:#42413c;fill-opacity:1" /></g></svg>
