<?xml version="1.0" encoding="UTF-8" standalone="no"?>
<svg
   version="1.1"
   width="551"
   height="368"
   style="clip-rule:evenodd;fill-rule:evenodd;image-rendering:optimizeQuality;shape-rendering:geometricPrecision;text-rendering:geometricPrecision"
   id="svg15"
   sodipodi:docname="darkBackground.svg"
   inkscape:export-filename="..\..\Users\D4C\OneDrive\Desktop\lightBackground.svg"
   inkscape:export-xdpi="96"
   inkscape:export-ydpi="96"
   inkscape:version="1.3.2 (091e20e, 2023-11-25, custom)"
   xmlns:inkscape="http://www.inkscape.org/namespaces/inkscape"
   xmlns:sodipodi="http://sodipodi.sourceforge.net/DTD/sodipodi-0.dtd"
   xmlns="http://www.w3.org/2000/svg"
   xmlns:svg="http://www.w3.org/2000/svg">
  <defs
     id="defs15" />
  <sodipodi:namedview
     id="namedview15"
     pagecolor="#ffffff"
     bordercolor="#000000"
     borderopacity="0.25"
     inkscape:showpageshadow="2"
     inkscape:pageopacity="0.0"
     inkscape:pagecheckerboard="0"
     inkscape:deskcolor="#d1d1d1"
     inkscape:zoom="1.562168"
     inkscape:cx="194.92142"
     inkscape:cy="202.60305"
     inkscape:window-width="1920"
     inkscape:window-height="1009"
     inkscape:window-x="1912"
     inkscape:window-y="46"
     inkscape:window-maximized="1"
     inkscape:current-layer="svg15" />
  <rect
     style="clip-rule:evenodd;fill:#34342f;fill-opacity:1;fill-rule:evenodd;image-rendering:optimizeQuality;shape-rendering:geometricPrecision;text-rendering:geometricPrecision"
     id="rect15"
     width="560"
     height="377"
     x="-4"
     y="-3.5"
     inkscape:label="rect15" />
  <g
     id="g2"
     style="display:inline">
    <path
       style="opacity:1;fill:#42413c;fill-opacity:1"
       fill="#e7e7e6"
       d="m 170.5,-0.5 26.23103,0.30775695 C 190.01203,11.333057 179.39651,19.269049 166.11551,22.077149 c -8.863,2.3996 -18.47851,4.0663 -27.61551,5 -13.385,0.8531 -27.02576,2.1864 -40.307757,4 -36.3455,5.0144 -55.819537,24.745008 -61.807337,60.730608 -4.9545,33.544003 3.866079,62.107603 26.153879,87.230603 13.6039,15.606 27.167807,30.75988 42.230605,45.15388 7.311,7.957 13.79788,16.47012 19.15388,25.84612 9.431,24.499 6.61012,48.57615 -8.15388,70.07715 -6.576,8.154 -11.98573,16.64088 -18.076727,25.15388 -4.5046,7.019 -6.755441,14.80049 -5.917441,23.11449 l -28.242687,0.0213 c 0.9759,-9.096 2.90458,-18.66718 6.92868,-26.90518 9,-17.333 17.692243,-34.82088 26.692243,-52.15388 4.266002,-12.321 6.368392,-24.52536 4.769392,-37.53836 -1.115,-4.229 -2.934878,-7.76737 -5.153878,-11.53837 -4,-5.333 -8.307757,-10.51312 -12.307757,-15.84612 C 69.127915,207.75627 54.545132,190.85909 40,173.5 34.645608,167.10972 31.4919,159.153 28,151.5 11.5264,110.163 16.5264,71.8293 43,36.5 54.2288,22.4673 64.424575,11.971379 86.5,11 c 42.97187,-1.8908801 41.92978,4.929218 62,0 8.03598,-1.9736257 13.40855,-11.60079963 22,-11.5 z"
       id="path2"
       sodipodi:nodetypes="scccccccccccccccccsccsas" />
  </g>
  <g
     id="g4"
     style="display:inline">
    <path
       style="opacity:1;fill:#42413c;fill-opacity:1"
       fill="#e8e8e7"
       d="M 222.42285,-0.34612153 277.73744,-0.5 c 3.057,12.3416 6.40077,24.498123 9.67677,36.823223 3.634,12.8047 7.19009,26.885614 2.88909,39.414214 -3.561,7.8942 -13.46086,13.570977 -21.56586,16.676777 -6.128,2.488 -13.69944,3.801046 -20.23744,4.646446 -28.679,0.706 -57.345,1.549477 -86,2.176777 -26.486,6.446003 -35.86468,21.511233 -32.37868,48.732233 5.004,16.652 12.82722,30.94489 23.82322,44.29289 12.376,14.041 23.49212,28.02045 35.11612,42.64645 8.619,10.894 11.22534,24.81799 9.93934,38.59099 -0.844,3.711 -1.094,8.0645 -2.25,11.6875 -9.143,18.287 -18.06,36.537 -28.25,54.25 -5.163,8.991 -7.80434,18.73437 -8.30734,29.07737 l -44.66012,0.09 c -0.131,-5.478 0.74619,-12.22361 2.54419,-17.41261 6.507,-16.682 15.60939,-33.11839 25.76939,-47.76939 3.917,-7.419 6.17285,-14.77824 8.92285,-22.69224 2.17,-8.557 4.06803,-16.45361 3.23103,-25.23061 -3.491,-14.982 -10.61964,-27.39173 -20.46164,-39.07673 -15.903,-18.906 -32.59524,-36.906 -50.692238,-54 -17.8727,-18.312 -24.61645,-40.90227 -18.07715,-65.92327 1.5297,-5.3918 3.205704,-11.223691 7,-15.307757 11.512498,-12.391704 27.382388,-19.895771 44.269388,-22.423271 17.429,-2.9044 34.91588,-6.2378 52.15388,-10 5.742,-1.8029 11.25512,-3.649021 16.84612,-5.846121 19.576,-8.7392 30.96049,-22.341573 35.38449,-43.26897253 z"
       id="path4"
       sodipodi:nodetypes="ccccccccccccccccccccccscccc" />
  </g>
  <g
     id="g6"
     style="display:inline">
    <path
       style="opacity:1;fill:#42413c;fill-opacity:1"
       fill="#e8e8e7"
       d="m 382.5,-0.375 70.375,-0.375 c -0.695,4.44515 -2.737,9.77848 -4.375,14 -4.541,8.9399 -12.624,13.0649 -22.75,12.125 -17.539,-2.5222 -32.456,-11.6056 -43.25,-25.75 z"
       id="path6"
       sodipodi:nodetypes="ccccc" />
  </g>
  <g
     id="g7"
     style="display:inline">
    <path
       style="opacity:1;fill:#42413c;fill-opacity:1"
       fill="#e8e8e7"
       d="m 511.5,-0.5 25.75,-0.375 c 5.161,5.67695 10.453,11.552 14.625,17.875 l -0.22595,65.737437 C 548.69905,76.176437 544.05,68.6057 540,62.5 c -12.43,-9.7546 -23.722,-7.8796 -34.625,3.875 -9.305,14.5607 -14.555,29.6024 -19.25,46.375 -3.49,10.149 -10.824,19.649 -19,26.5 -12.28,5.905 -25.863,5.53 -38.25,-0.375 -16.243,-7.956 -32.077,-15.623 -48.5,-23 -11.75,-3.533 -21.792,-1.283 -31.375,6.25 -4.987,6.22 -7.237,12.387 -7.25,20.5 0.078,13.432 -0.797,26.891 -2.875,40.125 -3.32,14.586 -13.362,21.58312 -28.375,20.33012 -8.155,-0.064 -16.40961,-0.31174 -24.25461,-2.58074 -6,-0.667 -11.74539,-2.16638 -17.74539,-1.49938 -3.083,0.786 -5.249,2.619 -6.5,5.5 -0.611,4.182 0.056,8.182 2,12 5.319,9.301 10.653,18.635 16,28 2.826,9.91 1.493,19.243 -4,28 -7.333,10.667 -14.667,21.333 -22,32 -6.274,9.477 -9.274,19.81 -9,31 4.759,15.813 13.925,19.313 27.5,10.5 10.971,-11.298 20.804,-23.465 29.5,-36.5 10.554,-13.221 22.388,-25.054 35.5,-35.5 17.722,-10.434 36.722,-13.434 57,-9 20.28,6.277 34.113,19.444 41.5,39.5 6.993,20.462 11.493,43.462 13.5,65 l -37,1.25 C 410.28,353.987 404.446,335.404 395,321.5 384.563,309.206 371.396,304.706 355.5,308 c -15.08,4.772 -28.413,12.439 -40,23 -13.563,12.403 -27.27419,25.3213 -41.04419,37.2513 L 213.5,368.20711 c -1.257,-2.596 -3.04558,-5.80152 -3.5,-8.70711 -2.48145,-15.8667 0.487,-31.286 7,-46 9.113,-19.34 17.446,-39.007 25,-59 3.642,-14.203 4.309,-28.536 2,-43 -3.061,-12.849 -6.728,-25.516 -11,-38 -0.963,-5.148 -1.796,-10.315 -2.5,-15.5 0.095,-6.595 3.429,-10.095 10,-10.5 14.767,2.976 29.558,5.851 44.125,9.875 20.641,3.346 32.141,-4.529 36.5,-24.875 3.353,-16.843 7.22539,-33.897909 9.125,-51 0.41957,-3.777386 0.75,-7.3333 1.75,-11 2.013,-6.6807 5.70768,-12.054349 12.5,-13.704505 7.71382,-1.874028 16.007,-0.02 22.75,4.454505 12.289,9.2873 24.164,19.4539 35.875,29.5 5.842,4.4243 12.426,6.7159 19.25,9.625 8.984,3.702 16.525,3.41 24.875,-1.625 7.59,-5.5875 13.006,-11.5459 17.75,-19.625 11.78,-20.5584 21.905,-42.0584 32.125,-63.5 C 500.737,9.5183 506.779,4.72667 511.5,-0.5 Z"
       id="path7"
       sodipodi:nodetypes="ccccccccccccccccccccccccccccccccccsccccccccscsccccccc" />
  </g>
  <g
     id="g10"
     style="clip-rule:evenodd;display:inline;fill-rule:evenodd;image-rendering:optimizeQuality;shape-rendering:geometricPrecision;text-rendering:geometricPrecision">
    <path
       style="opacity:1;fill:#42413c;fill-opacity:1"
       fill="#e8e8e7"
       d="m 551.73744,153.32322 0.35355,26.20971 c -43.668,-2.833 -88.08221,-0.0812 -130.41421,11.08579 -10.416,2.544 -19.55167,6.26906 -28.46967,12.05806 -5.366,4.767 -5.29717,9.00183 0.73483,13.23483 5.757,3.692 12.091,4.71973 19,5.02773 23.484,0.321 46.64023,2.321 69.82323,6 13.733,3.4 23.00894,12.78388 26.94194,26.38388 3.268,17.66 6.601,35.327 10,53 3.158,17.498 10.61689,32.17478 23.79289,43.67678 2.077,1.705 5.16,2.872 7.75,3.5 l 0.25,14.9375 -70.25,0.3125 c -2.872,-16.87 -4.456,-35.12 -5.25,-52.25 -1.128,-9.101 -2.795,-18.101 -5,-27 -4.095,-12.365 -11.262,-22.532 -21.5,-30.5 -23.748,-15.103 -49.748,-21.436 -78,-19 -17.7,2.617 -35.367,5.45 -53,8.5 -3.623,0.256 -7.64892,0.22696 -10,-2.5 -5.49995,-6.37926 -3.329,-12.682 4,-17 7.333,-3 14.667,-6 22,-9 3.465,-2.463 6.631,-5.296 9.5,-8.5 7.781,-13.229 13.906,-27.02 20.125,-41.125 2.748,-4.752 6.873,-10.794 11.125,-14.375 6.373,-3.63 13.789,-2.922 20.75,-0.625 11.794,4.897 22.57385,8.04488 35.29996,10.29455 16.06,2.154 29.72971,1.06311 41.66971,-9.75794 11.899,-12.477 23.91955,-25.76172 35.35355,-38.61872 8.879,-5.588 18.44975,-5.14073 24.2955,3.5 6.95264,10.27685 12.72672,22.09033 19.11872,32.53033 z"
       id="path10"
       sodipodi:nodetypes="ccccccccccccccccccscccccccccsc" />
  </g>
  <g
     id="g12"
     style="clip-rule:evenodd;display:inline;fill-rule:evenodd;image-rendering:optimizeQuality;shape-rendering:geometricPrecision;text-rendering:geometricPrecision">
    <path
       style="opacity:1;fill:#42413c;fill-opacity:1"
       fill="#e7e7e6"
       d="m -0.5,181.5 c 9.27474,18.97 17.1081,38.637 23.5,59 6.1568,20.575 8.1568,41.575 6,63 -3.7531,21.262 -6.522052,43.61147 -9.102252,65.01647 L 8.6767767,368.33969 C 8.0018367,335.34469 7.32506,301.505 7,268.5 6.4766,257.405 5.14326,246.405 3,235.5 c -0.72436,-3.927 -1.89102,-7.594 -3.5,-11 z"
       id="path12"
       sodipodi:nodetypes="ccccccccc" />
  </g>
  <g
     id="g13"
     style="clip-rule:evenodd;display:inline;fill-rule:evenodd;image-rendering:optimizeQuality;shape-rendering:geometricPrecision;text-rendering:geometricPrecision">
    <path
       style="opacity:1;fill:#42413c;fill-opacity:1"
       fill="#e8e8e7"
       d="m 551.2955,200.85355 0.79549,75.27037 c -3.787,-7.575 -10.27265,-18.15781 -14.15165,-25.91681 -4.096,-6.999 -8.99684,-13.07761 -15.23484,-18.41161 -12.681,-8.678 -25.83722,-16.60917 -39.82322,-23.26517 -3.225,-1.723 -5.99908,-4.48453 -6.49444,-8.03033 -0.13025,-0.93235 0.11864,-1.63984 1.11316,-2.5 5.87397,-5.08038 14.713,-4.44694 22.5,-3.94194 17.029,0.593 34.6575,3.38849 51.2955,6.79549 z"
       id="path13"
       sodipodi:nodetypes="cccccsscc" />
  </g>
</svg>
