<svg width="551" height="368" style="clip-rule:evenodd;fill-rule:evenodd;image-rendering:optimizeQuality;shape-rendering:geometricPrecision;text-rendering:geometricPrecision" xmlns="http://www.w3.org/2000/svg"><path style="clip-rule:evenodd;fill:#fbf5e5;fill-opacity:1;fill-rule:evenodd;image-rendering:optimizeQuality;shape-rendering:geometricPrecision;text-rendering:geometricPrecision" d="M-4-3.5h560v377H-4z"/><g style="display:inline"><path style="opacity:1;fill:#eee8d9;fill-opacity:1" fill="#e7e7e6" d="m170.5-.5 26.231.308c-6.719 11.525-17.334 19.461-30.615 22.27-8.863 2.399-18.479 4.065-27.616 5-13.385.852-27.026 2.186-40.308 4-36.345 5.014-55.82 24.744-61.807 60.73-4.955 33.544 3.866 62.107 26.154 87.23 13.604 15.606 27.168 30.76 42.23 45.154 7.311 7.957 13.798 16.47 19.154 25.846 9.431 24.5 6.61 48.577-8.154 70.078-6.576 8.154-11.985 16.64-18.076 25.153-4.505 7.02-6.756 14.8-5.918 23.115l-28.242.021c.975-9.096 2.904-18.667 6.928-26.905 9-17.333 17.692-34.82 26.692-52.154 4.266-12.32 6.369-24.525 4.77-37.538-1.115-4.23-2.935-7.768-5.154-11.539-4-5.333-8.308-10.513-12.308-15.846C69.128 207.756 54.545 190.86 40 173.5c-5.354-6.39-8.508-14.347-12-22-16.474-41.337-11.474-79.67 15-115C54.229 22.467 64.425 11.971 86.5 11c42.972-1.89 41.93 4.93 62 0 8.036-1.974 13.409-11.6 22-11.5z"/></g><g style="display:inline"><path style="opacity:1;fill:#eee8d9;fill-opacity:1" fill="#e8e8e7" d="M222.423-.346 277.737-.5c3.057 12.342 6.401 24.498 9.677 36.823 3.634 12.805 7.19 26.886 2.89 39.414-3.562 7.895-13.462 13.571-21.567 16.677-6.128 2.488-13.699 3.801-20.237 4.647-28.679.706-57.345 1.55-86 2.176-26.486 6.446-35.865 21.512-32.379 48.733 5.004 16.652 12.828 30.945 23.824 44.293 12.376 14.04 23.492 28.02 35.116 42.646 8.619 10.894 11.225 24.818 9.939 38.591-.844 3.711-1.094 8.065-2.25 11.688-9.143 18.287-18.06 36.537-28.25 54.25-5.163 8.99-7.804 18.734-8.307 29.077l-44.66.09c-.131-5.478.746-12.224 2.544-17.413 6.507-16.682 15.61-33.118 25.77-47.77 3.916-7.418 6.172-14.777 8.922-22.691 2.17-8.557 4.068-16.454 3.231-25.231-3.491-14.982-10.62-27.392-20.462-39.077-15.903-18.906-32.595-36.906-50.692-54C66.973 144.111 60.23 121.521 66.77 96.5c1.53-5.392 3.206-11.224 7-15.308 11.512-12.391 27.382-19.896 44.27-22.423 17.428-2.904 34.915-6.238 52.153-10 5.742-1.803 11.255-3.649 16.846-5.846 19.576-8.74 30.96-22.342 35.385-43.27z"/></g><g style="display:inline"><path style="opacity:1;fill:#eee8d9;fill-opacity:1" fill="#e8e8e7" d="m382.5-.375 70.375-.375c-.695 4.445-2.737 9.778-4.375 14-4.541 8.94-12.624 13.065-22.75 12.125-17.539-2.522-32.456-11.606-43.25-25.75z"/></g><g style="display:inline"><path style="opacity:1;fill:#eee8d9;fill-opacity:1" fill="#e8e8e7" d="m511.5-.5 25.75-.375c5.161 5.677 10.453 11.552 14.625 17.875l-.226 65.737c-2.95-6.56-7.599-14.131-11.649-20.237-12.43-9.755-23.722-7.88-34.625 3.875-9.305 14.56-14.555 29.602-19.25 46.375-3.49 10.149-10.824 19.649-19 26.5-12.28 5.905-25.863 5.53-38.25-.375-16.243-7.956-32.077-15.623-48.5-23-11.75-3.533-21.792-1.283-31.375 6.25-4.987 6.22-7.237 12.387-7.25 20.5.078 13.432-.797 26.891-2.875 40.125-3.32 14.586-13.362 21.583-28.375 20.33-8.155-.064-16.41-.312-24.255-2.58-6-.668-11.745-2.167-17.745-1.5-3.083.786-5.249 2.619-6.5 5.5-.611 4.182.056 8.182 2 12 5.319 9.301 10.653 18.635 16 28 2.826 9.91 1.493 19.243-4 28l-22 32c-6.274 9.477-9.274 19.81-9 31 4.759 15.813 13.925 19.313 27.5 10.5a257.129 257.129 0 0 0 29.5-36.5c10.554-13.221 22.388-25.054 35.5-35.5 17.722-10.434 36.722-13.434 57-9 20.28 6.277 34.113 19.444 41.5 39.5 6.993 20.462 11.493 43.462 13.5 65l-37 1.25c-2.22-16.763-8.054-35.346-17.5-49.25-10.437-12.294-23.604-16.794-39.5-13.5-15.08 4.772-28.413 12.439-40 23-13.563 12.403-27.274 25.321-41.044 37.251l-60.956-.044c-1.257-2.596-3.046-5.801-3.5-8.707-2.481-15.867.487-31.286 7-46a810.074 810.074 0 0 0 25-59c3.642-14.203 4.309-28.536 2-43a412.708 412.708 0 0 0-11-38 314.157 314.157 0 0 1-2.5-15.5c.095-6.595 3.429-10.095 10-10.5 14.767 2.976 29.558 5.851 44.125 9.875 20.641 3.346 32.141-4.529 36.5-24.875 3.353-16.843 7.225-33.898 9.125-51 .42-3.777.75-7.333 1.75-11 2.013-6.68 5.708-12.054 12.5-13.705 7.714-1.874 16.007-.02 22.75 4.455 12.289 9.287 24.164 19.454 35.875 29.5 5.842 4.424 12.426 6.716 19.25 9.625 8.984 3.702 16.525 3.41 24.875-1.625 7.59-5.588 13.006-11.546 17.75-19.625 11.78-20.558 21.905-42.058 32.125-63.5C500.737 9.518 506.779 4.727 511.5-.5Z"/></g><g style="clip-rule:evenodd;display:inline;fill-rule:evenodd;image-rendering:optimizeQuality;shape-rendering:geometricPrecision;text-rendering:geometricPrecision"><path style="opacity:1;fill:#eee8d9;fill-opacity:1" fill="#e8e8e7" d="m551.737 153.323.354 26.21c-43.668-2.833-88.082-.081-130.414 11.086-10.416 2.544-19.552 6.269-28.47 12.058-5.366 4.767-5.297 9.002.735 13.235 5.757 3.692 12.09 4.72 19 5.027a486.21 486.21 0 0 1 69.823 6c13.733 3.4 23.01 12.784 26.942 26.384a7676.392 7676.392 0 0 0 10 53c3.158 17.498 10.617 32.175 23.793 43.677 2.077 1.705 5.16 2.872 7.75 3.5l.25 14.938-70.25.312c-2.872-16.87-4.456-35.12-5.25-52.25a229.57 229.57 0 0 0-5-27c-4.095-12.365-11.262-22.532-21.5-30.5-23.748-15.103-49.748-21.436-78-19-17.7 2.617-35.367 5.45-53 8.5-3.623.256-7.649.227-10-2.5-5.5-6.38-3.329-12.682 4-17l22-9a57.217 57.217 0 0 0 9.5-8.5c7.781-13.229 13.906-27.02 20.125-41.125 2.748-4.752 6.873-10.794 11.125-14.375 6.373-3.63 13.789-2.922 20.75-.625 11.794 4.897 22.574 8.045 35.3 10.295 16.06 2.154 29.73 1.063 41.67-9.758 11.899-12.477 23.92-25.762 35.353-38.62 8.88-5.587 18.45-5.14 24.296 3.5 6.952 10.278 12.726 22.091 19.118 32.531z"/></g><g style="clip-rule:evenodd;display:inline;fill-rule:evenodd;image-rendering:optimizeQuality;shape-rendering:geometricPrecision;text-rendering:geometricPrecision"><path style="opacity:1;fill:#eee8d9;fill-opacity:1" fill="#e7e7e6" d="M-.5 181.5c9.275 18.97 17.108 38.637 23.5 59 6.157 20.575 8.157 41.575 6 63-3.753 21.262-6.522 43.611-9.102 65.016l-11.221-.176C8.002 335.345 7.325 301.505 7 268.5a226.145 226.145 0 0 0-4-33c-.724-3.927-1.891-7.594-3.5-11z"/></g><g style="clip-rule:evenodd;display:inline;fill-rule:evenodd;image-rendering:optimizeQuality;shape-rendering:geometricPrecision;text-rendering:geometricPrecision"><path style="opacity:1;fill:#eee8d9;fill-opacity:1" fill="#e8e8e7" d="m551.295 200.854.796 75.27c-3.787-7.575-10.273-18.158-14.152-25.917-4.096-6.999-8.997-13.077-15.235-18.411-12.68-8.678-25.837-16.61-39.823-23.266-3.225-1.723-5.999-4.484-6.494-8.03-.13-.932.118-1.64 1.113-2.5 5.874-5.08 14.713-4.447 22.5-3.942 17.029.593 34.657 3.389 51.295 6.796z"/></g></svg>