<?xml version="1.0" encoding="UTF-8" standalone="no"?>
<svg
   version="1.1"
   width="500"
   height="683"
   style="clip-rule:evenodd;fill-rule:evenodd;image-rendering:optimizeQuality;shape-rendering:geometricPrecision;text-rendering:geometricPrecision"
   id="svg25"
   sodipodi:docname="667170bf3417596491b3801b7c490cfa.svg"
   inkscape:export-filename="..\..\Users\D4C\OneDrive\Desktop\darkPaletteBackground.svg"
   inkscape:export-xdpi="96"
   inkscape:export-ydpi="96"
   xmlns:inkscape="http://www.inkscape.org/namespaces/inkscape"
   xmlns:sodipodi="http://sodipodi.sourceforge.net/DTD/sodipodi-0.dtd"
   xmlns="http://www.w3.org/2000/svg"
   xmlns:svg="http://www.w3.org/2000/svg">
  <defs
     id="defs25" />
  <sodipodi:namedview
     id="namedview25"
     pagecolor="#ffffff"
     bordercolor="#000000"
     borderopacity="0.25"
     inkscape:showpageshadow="2"
     inkscape:pageopacity="0.0"
     inkscape:pagecheckerboard="0"
     inkscape:deskcolor="#d1d1d1" />
  <rect
     style="clip-rule:evenodd;fill:#fbf5e5;fill-opacity:1;fill-rule:evenodd;image-rendering:optimizeQuality;shape-rendering:geometricPrecision;text-rendering:geometricPrecision"
     id="rect25"
     width="518.34064"
     height="698.96185"
     x="-7.5608854"
     y="-3.3603935" />
  <g
     id="g1">
    <path
       style="display:inline;opacity:1;fill:#eee8d9;fill-opacity:1"
       fill="#f9f9f9"
       d="m -0.5,-0.5 h 35 c 6.5379,14.1889 8.071498,29.459339 -0.5,43 -7.426787,11.732326 -20.4915,16.581 -34.5,18 z"
       id="path1"
       sodipodi:nodetypes="ccscc" />
  </g>
  <g
     id="g3">
    <path
       style="display:inline;opacity:1;fill:#eee8d9;fill-opacity:1"
       fill="#f8f8f8"
       d="m 64.5,-0.5 h 92 c 15.74607,0 19.88589,21.160298 21.11216,36.947494 C 178.24437,44.586657 175.20524,51.661709 173,59.5 c -3.98873,14.177515 2.67441,25.523746 16.5,30.5 8.98902,3.235424 18.93673,2.986382 28,6 12.97916,4.31569 24.70044,12.12618 33.5,22.5 12.86384,15.16522 13.28376,33.3804 9,53 -6.43523,29.47337 -22.77696,44.82953 -52.5,39.5 -11.0751,-1.98584 -21.21811,-7.58306 -32,-11 -10.63743,-3.37116 -19.9622,-0.77716 -23.5,9.5 -2.6238,7.62203 -1.64224,16.05115 -3,24 -1.74954,10.24249 -7.4696,18.84142 -17.5,21.5 -8.6468,2.29186 -18.80304,2.57066 -22.5,10.5 -3.05785,6.55856 1.44628,14.24846 7,19 10.66306,9.12288 23.00725,16.17671 33.5,25.5 14.46159,12.84978 20.66388,30.07 22.5,49.5 3.06364,32.4197 -10.37965,51.79245 -42.5,57.5 -6.77949,1.20466 -13.61613,2.48527 -20.5,2.5 -7.215,0.0154 -14.518664,-0.67261 -21.5,-2.5 -8.666648,-2.26853 -15.784142,-7.90976 -20.5,-15.5 -8.913753,-14.34681 -14.972173,-30.15518 -21,-46 -4.919617,-12.93176 -14.666344,-21.53796 -28.5,-22 -7.277715,-0.24307 -18,17.29846 -18,10 v -46 c 0,-9.41296 17.047684,-8.11018 26.5,-8 12.072364,0.14072 22.343186,5.77574 30,15 3.663047,4.41292 7.844916,8.68517 10,14 7.213714,17.79032 12.116915,36.56791 22,53 8.91172,14.81705 23.65874,18.97033 39.5,11.5 10.20822,-4.81393 13.90789,-14.41131 11.5,-25.5 -1.98973,-9.16301 -6.9371,-16.94305 -14.5,-22.5 -12.89868,-9.47749 -26.612255,-17.86364 -39,-28 -9.925867,-8.12191 -14.865346,-19.50289 -16.5,-32.5 -3.710912,-29.50541 8.787492,-46.89483 37.5,-53.5 7.62618,-1.75436 11.8528,-7.22652 11,-15 -3.27118,-29.81772 9.21953,-43.68104 39.5,-42.5 14.35906,0.56005 28.43995,2.58891 42.5,5.5 5.26293,1.08967 10.87375,1.61471 16,0 10.71493,-3.37509 13.91057,-11.92653 9.5,-22.5 -3.3802,-8.10336 -9.48001,-13.96921 -17.5,-17.5 -9.99207,-4.399 -20.86902,-6.05026 -31,-10 C 159.00845,112.1806 147.67545,97.849045 144,79.5 141.4324,66.681728 144.32517,53.459554 143,40.5 141.77286,28.499136 132.39302,20.850407 120.5,19 94.610694,14.971944 87.088697,26.136482 99,49.5 c 2.10325,4.125437 4.08005,8.406007 7,12 7.22568,8.893656 16.01268,16.721801 21,27 14.1598,29.18146 5.51164,53.2293 -23.5,67.5 -16.107401,7.92316 -33.210824,6.58132 -47,-5 -8.128135,-6.8267 -15.056722,-14.68699 -25,-18 -4.159522,-1.38591 -8.839934,-1.38428 -13,0 -4.645641,1.54586 -5.480333,5.63361 -4.5,10.5 1.76211,8.74715 4.52596,16.99575 11,23 8.818137,8.17825 19.222577,14.76309 27,24 8.034451,9.54217 9.257057,21.62209 7,34 -1.948907,10.68799 -4.524925,21.53885 -11.5,30 -9.098435,11.0369 -22.059745,17.41314 -36,21 -3.8939488,1.00192 -15.4279399,7.70406 -15.267216,3.67318 l 1.633608,-40.9702 C -1.497264,222.24374 24.84424,229.20057 23,213.5 c -0.634593,-5.40249 -4.43209,-9.97776 -8,-14 -4.390244,-4.94929 -15.5,-5.46775 -15.5,-12 v -91 c 0,-27.952042 49.051735,-1.674296 68,18.5 2.675701,2.84883 6.061163,5.60243 10,6 17.894599,1.80622 17.432314,-13.62455 16.655135,-23.079951 -0.448888,-5.461322 -2.267073,-7.539252 -3.689729,-11.205258 -9.122165,-23.506678 -29.078209,-43.858709 -31,-69 C 58.985294,11.433857 57.138801,-0.5 64.5,-0.5 Z"
       id="path3"
       sodipodi:nodetypes="ssssssssssssssssssssssssssssssssssssssssssssssssssssssssssssssssssssss" />
  </g>
  <g
     id="g5">
    <path
       style="display:inline;opacity:1;fill:#eee8d9;fill-opacity:1"
       fill="#f7f7f7"
       d="m 194.5,-0.5 c 33.333,0 66.667,0 100,0 -10.368,10.5268 -22.701,18.0268 -37,22.5 -12.996,0.3356 -25.663,-1.6644 -38,-6 -10.081,-3.0281 -18.415,-8.52812 -25,-16.5 z"
       id="path5" />
  </g>
  <g
     id="g6">
    <path
       style="display:inline;opacity:1;fill:#eee8d9;fill-opacity:1"
       fill="#f8f8f8"
       d="m 369.5,-0.5 h 94 c -1.521,4.0587 -3.354,8.0587 -5.5,12 -13.232,19.375 -31.68206,27.740296 -53.5,19.5 -15.15707,-5.72459 -26.018,-18.0185 -35,-31.5 z"
       id="path6"
       sodipodi:nodetypes="cccsc" />
  </g>
  <g
     id="g7">
    <path
       style="display:inline;opacity:1;fill:#eee8d9;fill-opacity:1"
       fill="#f8f8f8"
       d="m 499.5,13.5 v 56 c 0,16.300033 -27.67667,12.84892 -39,24.5 -8.91889,9.17705 -21.15675,14.41169 -34,16 -15.97336,1.9754 -31.46144,-2.14323 -44,-12 -14.33934,-11.272388 -24.01983,-26.742426 -34,-42 -2.87181,-4.390393 -8.99388,-5.667336 -12,-1.5 -4.543,6.29789 -6.31379,14.255452 -12,19.5 -4.73886,4.370783 -11.1138,6.24 -17,9 -9.09186,4.263112 -11.28733,12.05585 -4.5,19.5 4.2183,4.62651 10.26875,7.80777 16.5,8.5 14.58108,1.61981 29.50296,-1.25115 44,1 18.85669,2.92813 32.71095,15.26475 42.5,31.5 1.86066,3.08592 2.98088,6.46002 3.5,10 0.82492,5.62527 1.92456,11.37106 1,17 -3.94973,24.04682 -18.02731,41.40515 -41,49.5 -10.98093,3.86933 -22.624,2.844 -34,0 l -24,-6 c -16.32431,-4.08108 -27.47246,5.23141 -30,22 -0.83606,5.54671 2.50928,9.60293 8,11 3.93001,0.99996 8.09304,1.08654 12,0 31.18372,-8.67232 56.08045,-0.53834 78,23 3.97043,4.26365 9.5119,6.97026 15,9 9.59887,3.55009 16.5692,-0.57171 18.5,-10.5 1.78565,-9.18188 0.48218,-18.72975 2,-28 1.75704,-10.73131 8.70154,-19.62848 18.5,-24.5 9.77068,-4.85771 20.72075,-7.23863 30,-13 5.9522,-3.69565 7.5881,-10.2842 4.5,-16.5 -3.41862,-6.88109 -8.82068,-12.56142 -13,-19 -11.94808,-18.40698 -11.0805,-37.30211 5.5,-51.5 10.91839,-9.34943 43.75071,-31.574789 42.88546,-17.340098 l -2.41529,39.735088 C 500.10007,152.70946 479.55675,146.88033 487,159.5 c 3.51763,5.96397 12.5,9.30714 12.5,16 v 45 c 0,3.89094 -5.52371,5.6602 -9,7.5 -9.91157,5.24564 -20.77544,8.39874 -31,13 -6.74435,3.0351 -10.47347,9.13623 -11.5,16.5 -1.38426,9.9299 -0.73417,20.03668 -2,30 -2.17219,17.09731 -13.3235,27.48813 -30.5,29.5 -12.17922,1.42655 -24.4734,-0.60654 -35,-7 -12.65184,-7.68425 -23.71988,-17.73467 -36,-26 -9.92592,-6.68079 -21.30576,-9.29426 -33,-7 -10.42977,2.04618 -20.8217,3.95199 -31,1 -5.88945,-1.7081 -11.17076,-5.19956 -16,-9 -13.64565,-10.73864 -19.526,-25.259 -18.5,-42.5 0.91783,-15.42335 12.12903,-26.66533 22.5,-36.5 6.06132,-5.74788 14.17664,-9.17115 22,-12 8.30242,-3.00207 17.30937,-1.75828 26,0 10.45243,2.11473 20.87408,4.64831 31.5,5.5 3.92644,0.31471 7.95375,-0.75525 11.5,-2.5 3.08433,-1.51749 6.71879,-3.29536 8,-6.5 5.21087,-13.03374 -0.98882,-23.03928 -15,-26.5 -10.75443,-2.65631 -21.95333,-1.96424 -33,-3 -14.87116,-1.39435 -29.69557,-5.47203 -42,-14 -18.07296,-12.52603 -30.45631,-30.88372 -38.5,-51.5 -2.96651,-7.60328 -2.96513,-15.975542 1,-23 8.15651,-14.449723 20.11453,-15.040631 35.5,-8.5 9.75887,4.148665 19.59083,0.275471 26.5,-7.5 4.11864,-4.635051 7.22035,-10.084601 11,-15 3.95926,-5.148981 8.98826,-9.739355 15.5,-10.5 19.78879,-2.311555 36.66448,5.736857 47.5,22.5 6.9129,10.694624 11.76652,23.483608 22.5,30.5 11.53405,7.539715 25.42992,4.739586 37,-3 8.69963,-5.819452 15.75162,-14.099284 25,-19 8.28109,-4.38815 20.35004,-1.350035 27,-8 l 4.5,-4.5 c 5.14327,-5.143271 7.5,-27.0618552 7.5,-20 z"
       id="path7"
       sodipodi:nodetypes="ssssssssssssssssssssssssssssssssssssssssssssssssssssssssssssssssssss"
       inkscape:label="path7" />
  </g>
  <g
     id="g13">
    <path
       style="display:inline;opacity:1;fill:#eee8d9;fill-opacity:1"
       fill="#f8f8f8"
       d="m 501.57914,271.71788 1.4851,52.78212 c 0.29358,10.43429 -6.79586,20.81459 -10.06424,31 -3.48673,10.86587 -12.09057,18.81226 -21.5,25.5 -9.65364,6.86131 -20.28922,11.75093 -32,14 -11.24169,2.15898 -22.34401,0.9298 -32,-5 -7.17319,-4.40509 -13.67227,-9.82226 -21,-14 -7.16856,-4.087 -14.84444,-4.90642 -22,-1 -7.09711,3.87451 -13.48381,9.06544 -21,12 -7.62972,2.97888 -16.00566,3.85202 -24,2 -19.58751,-4.53777 -35.54003,-15.76104 -46.5,-32.5 -19.36807,-29.58048 -40.56472,-57.90188 -70.5,-76.5 -10.51497,-6.53272 -18.63183,0.31318 -17.5,12.5 0.53624,5.77386 4.38177,10.64668 9.5,13.5 12.98639,7.23967 26.65297,13.43489 38,23 25.51834,21.51098 25.113,45.22284 4.5,71.5 -10.93839,13.9441 -7.79789,28.38098 8.5,34.5 9.41918,3.53642 17.60783,-4.56579 26,-8 9.38273,-3.83956 17.45099,-10.72202 27,-14 13.50697,-4.63667 28.95269,-4.04731 39,6 8.66667,8.66667 26,26 26,26 5.75455,5.75455 14.186,5.69449 20,0 18.9032,-18.51462 40.56583,-26.80861 64,-14 24.4295,13.35263 33.76102,38.40232 23.5,64.5 -6.48944,16.50512 -22.2733,26.20179 -39.5,30.5 -10.33192,2.57791 -21.46454,2.37766 -31,7 -11.20421,5.43127 -19.56441,15.33749 -30,22 -16.81284,10.734 -37.4763,13.41896 -53,1 -10,-8 -20,-16 -30,-24 -9.35385,-7.48308 -21.05741,-3.19856 -32,2 -8.05257,3.82558 -17.58693,5.85577 -26,3 -12.82866,-4.35463 -23.52725,-13.39181 -34,-22 -8.32273,-6.84096 -11.96429,-16.9452 -18.5,-25.5 -12.99856,-17.01423 -31.57735,-16.94158 -47,-2 -3.71543,3.59953 -4.58899,9.19484 -6.5,14 -1.3091,3.29168 -2.11668,6.69174 -2,10.5 0.0824,2.68874 0.20472,5.23184 1,7.5 2.89639,8.26059 6.73842,16.55001 14,21.5 13.81036,9.41409 29.88269,14.83925 45,22 14.42888,6.83466 25.97971,18.01228 29.5,33.5 5.47588,24.09145 -2.57259,46.46993 -20,64 -4.53578,4.5625 -10.41233,7.56231 -15.5,11.5 -3.60389,2.78929 -2.32256,12.54745 -6.81192,12.57914 l -42.07914,0.29702 c -5.43721,0.0384 3.36579,-12.80332 6.39106,-17.37616 8.62199,-13.03256 20.69024,-21.8197 34.5,-29.5 6.48039,-3.60407 9.30223,-10.4356 11,-17.5 0.44903,-1.86843 0.93546,-3.80494 1,-6 0.0975,-3.31628 -0.92857,-6.12081 -2,-9 -3.10784,-8.35152 -6.56936,-17.45023 -15,-20.5 -14.38757,-5.20469 -30.15416,-5.3225 -45,-9 -3.36086,-0.83253 -6.40263,-2.76393 -9,-5 -11.160994,-9.60849 -18.972905,-21.77654 -24.5,-35.5 -7.518118,-18.66706 -7.820865,-37.42663 2,-55 5.539251,-9.91189 13.641164,-18.17423 22.5,-25.5 18.16204,-15.019 38.72366,-18.1118 60,-8 22.32082,10.6082 40.25146,26.95596 57,45 3.49463,3.76495 8.87648,4.44272 14,5.5 4.53872,0.93661 8.56721,0.55283 13,-1 28.23779,-9.89188 49.60561,-0.82323 68,22.5 5.63519,7.14515 15.07684,9.59756 24,8 8.29098,-1.48438 16.1967,-5.08631 23,-10 7.01471,-5.06638 12.75217,-12.36869 21,-15 13.50563,-4.3087 28.25038,-3.38696 42,-7 5.60169,-1.47198 8.91988,-6.98779 10.5,-12.5 4.80796,-16.77247 -2.59684,-27.61796 -19.5,-23.5 -13.99548,3.40959 -24.49382,14.50218 -36,23 -7.09675,5.24127 -16.03622,6.75832 -24,3 -13.4422,-6.34374 -22.58686,-17.91755 -30.5,-30.5 -5.27032,-8.38018 -13.82042,-12.12044 -22.5,-7.5 -10.69801,5.69492 -19.97436,13.80786 -31,19 -6.27061,2.95292 -13.12162,4.12522 -20,5 -18.14256,2.30734 -34.48071,-2.10625 -45.5,-16.5 -12.87984,-16.82407 -16.55043,-37.49379 -10,-58 2.74059,-8.57945 10.4094,-14.78075 14,-23 3.45653,-7.91235 0.70093,-16.89046 -6.5,-21.5 -25.2531,-16.1653 -44.44661,-36.2001 -54.5,-64.5 -2.11283,-5.94754 -2.60589,-12.2723 0,-18 5.54164,-12.18043 15.3798,-20.98363 28.5,-23.5 14.17929,-2.7195 28.57804,0.30269 40,9 16.21384,12.34611 29.18343,28.69484 45,42 7.70314,6.48001 17.74505,10.04175 24.5,17.5 7.14556,7.88953 10.20253,18.47428 15,28 2.66827,5.29804 7.6375,9.46754 13.5,10.5 13.55541,2.38729 24.28781,-4.68858 36,-12 8.8813,-5.54421 19.60397,-2.7981 29,2 7.83149,3.99917 15.05989,9.13799 23,13 8.51768,4.14294 18.0171,5.27293 27.5,5.5 16.66049,0.39894 26.42277,-7.65494 29,-24 1.2639,-8.01576 1.60686,-16.25198 4,-24 3.79817,-12.29694 10.49979,-23.4176 19,-33 2.83991,-3.20147 12.4616,-12.95957 12.57914,-8.78212 z"
       id="path13"
       sodipodi:nodetypes="ssssssssssssssssssssssssssssssssssssssssssssssssssssssssssssssssssssssssssssssssssssssssssss" />
  </g>
  <g
     id="g16">
    <path
       style="opacity:1;fill:#eee8d9;fill-opacity:1"
       fill="#f7f7f7"
       d="m 499.5,391.5 c 0,24.667 0,49.333 0,74 -5.906,-5.457 -10.072,-12.123 -12.5,-20 -8.235,-21.021 -4.068,-39.021 12.5,-54 z"
       id="path16" />
  </g>
  <g
     id="g20">
    <path
       style="display:inline;opacity:1;fill:#eee8d9;fill-opacity:1"
       fill="#f8f8f8"
       d="m 504.22555,528.3401 -3.78044,32.47494 C 498.77378,575.1722 475.60032,569.25701 474,583.5 c -1.34039,11.92955 0.1775,24.05327 -1,36 -1.38591,14.06116 -7.99264,26.40497 -19.5,34.5 -20.87765,14.68671 -41.68272,11.65702 -57.5,-8.5 -5.76932,-7.35223 -9.64634,-16.13497 -16.5,-22.5 -7.58694,-7.04603 -17.46721,-9.04308 -27,-5 -8.71063,3.69439 -15.51166,10.89151 -24,15 -7.71993,3.73657 -16.43216,2.034 -24,-2 -6.55217,-3.4926 -11.35865,-9.67698 -18,-13 -17.71683,-8.86467 -25.94767,-0.99001 -21.5,18.5 2.98198,13.06725 11.35314,21.56796 24.5,23.5 8.26183,1.21414 16.63953,-0.20792 25,-0.5 21.91623,-0.76565 77.51022,26.99047 56.05012,26.99047 0,0 -69.33333,0 -104,0 -4.6501,0 -9.32485,-8.45603 -13.05012,-11.49047 -9.60087,-7.82044 -16.51052,-18.17976 -21.5,-29.5 -5.41597,-12.28785 -6.0511,-25.19747 -2,-38 8.96067,-28.31806 27.93588,-37.06611 54.5,-23.5 6.59123,3.36609 11.86679,8.8577 18,13 9.3888,6.34108 18.97544,5.97797 28,-1 8.3345,-6.4444 16.76638,-13.23244 27,-16 14.69227,-3.97335 28.23902,0.88419 37.5,12.5 6.05366,7.59295 8.11609,18.11609 15,25 1.83333,1.83333 3.66667,3.66667 5.5,5.5 13.28449,13.28449 28.79576,3.18965 31.5,-15.5 1.67445,-11.57249 0.0305,-23.4779 2,-35 4.72975,-27.67082 58.47648,-72.08614 55.22555,-44.1599 z"
       id="path20"
       sodipodi:nodetypes="sssssssssssssssssssssssssssss" />
  </g>
  <g
     id="g21">
    <path
       style="display:inline;opacity:1;fill:#eee8d9;fill-opacity:1"
       fill="#f7f7f7"
       d="m -0.5,396.5 c 0,-8.95367 17.096765,4.62346 23,11.5 4.670452,5.4405 7.279347,12.58586 12.5,17.5 7.239867,6.8148 16.218365,11.6746 23,19 2.832115,3.0592 4.90421,6.93876 6,11 6.890636,25.53823 -1.81714,45.87717 -26.5,54.5 -9.461711,3.3054 -20.038518,0.66675 -30,2 -2.6119439,0.34958 -5.0059696,2.91121 -5.5,5.5 -2.18164333,11.43211 1.6996647,23.21677 12.5,27.5 13.001671,5.15624 27.928163,3.93505 41,9 7.346853,2.84669 13.206322,8.65266 19,14 11.061915,10.20972 22.302165,20.48316 31.5,32.5 15.38615,20.10178 14.13933,41.65272 -1,62 -5.553425,7.46381 -13.166388,11.9704 -22.5,12.5 -14.952533,0.84842 -30.608283,0.79972 -44,-6 -14.04287,-7.13035 -39,-10.79242 -39,-26.5 v -39 c 0,-6.2924 11.833177,3.8544 17,7.5 11.061271,7.8046 19.870682,18.93534 32,25 5.333333,2.66667 10.666667,5.33333 16,8 14.319694,7.15985 25.11396,-3.20504 21.5,-18.5 -1.867012,-7.90155 -9.030182,-13.42547 -15.5,-18.5 -6.348355,-4.97926 -12.459943,-10.25272 -19,-15 -6.040412,-4.3846 -12.804686,-7.91648 -20,-10 -10.542389,-3.05272 -32,3.43958 -32,-7.5 v -96 c 0,-4.97482 9.3238586,2.98549 14,4.5 7.135148,2.31093 14.71704,1.1171 19.5,-4.5 6.30581,-7.40553 5.485775,-16.9482 -2.5,-22.5 -8.988656,-6.24901 -17.929018,-11.68387 -25,-20 -1.5020981,-1.76661 -6,-0.21405 -6,-2.5 z"
       id="path21"
       sodipodi:nodetypes="ssssssssssssssssssssssssssssssss" />
  </g>
  <g
     id="g25">
    <path
       style="display:inline;opacity:1;fill:#eee8d9;fill-opacity:1"
       fill="#f5f5f5"
       d="m 499.5,616.5 v 66 h -11 c -1.746,-3.163 -3.86927,-6.33221 -4.5,-10 -1.30428,-7.58463 -0.667,-15.333 0,-23 1.457,-12.907 6.624,-23.907 15.5,-33 z"
       id="path25"
       sodipodi:nodetypes="cccscc" />
  </g>
</svg>
