<svg width="25" height="23" viewBox="0 0 25 23" fill="none" xmlns="http://www.w3.org/2000/svg">
<path d="M17.1591 11.9318L15.5114 10.2841C15.6818 9.39394 15.4261 8.56061 14.7443 7.78409C14.0625 7.00758 13.1818 6.70455 12.1023 6.875L10.4545 5.22727C10.7765 5.07576 11.1032 4.96212 11.4347 4.88636C11.7661 4.81061 12.1212 4.77273 12.5 4.77273C13.9205 4.77273 15.1278 5.26989 16.1222 6.2642C17.1165 7.25852 17.6136 8.46591 17.6136 9.88636C17.6136 10.2652 17.5758 10.6203 17.5 10.9517C17.4242 11.2831 17.3106 11.6098 17.1591 11.9318ZM20.7955 15.5114L19.1477 13.9205C19.8674 13.3712 20.5066 12.7699 21.0653 12.1165C21.6241 11.4631 22.1023 10.7197 22.5 9.88636C21.553 7.97348 20.1941 6.4536 18.4233 5.3267C16.6525 4.19981 14.678 3.63636 12.5 3.63636C11.9508 3.63636 11.411 3.67424 10.8807 3.75C10.3504 3.82576 9.82955 3.93939 9.31818 4.09091L7.55682 2.32955C8.33333 2.00758 9.12879 1.7661 9.94318 1.60511C10.7576 1.44413 11.6098 1.36364 12.5 1.36364C15.3598 1.36364 17.9072 2.15436 20.142 3.7358C22.3769 5.31723 23.9962 7.36742 25 9.88636C24.5644 11.0038 23.9915 12.0407 23.2812 12.9972C22.571 13.9536 21.7424 14.7917 20.7955 15.5114ZM21.3636 22.5L16.5909 17.7841C15.928 17.9924 15.2604 18.1487 14.5881 18.2528C13.9157 18.357 13.2197 18.4091 12.5 18.4091C9.64015 18.4091 7.0928 17.6184 4.85795 16.0369C2.62311 14.4555 1.00379 12.4053 0 9.88636C0.397727 8.88258 0.899621 7.94981 1.50568 7.08807C2.11174 6.22633 2.80303 5.45455 3.57955 4.77273L0.454545 1.59091L2.04545 0L22.9545 20.9091L21.3636 22.5ZM5.17045 6.36364C4.62121 6.85606 4.11932 7.39583 3.66477 7.98295C3.21023 8.57008 2.82197 9.20455 2.5 9.88636C3.44697 11.7992 4.80587 13.3191 6.5767 14.446C8.34754 15.5729 10.322 16.1364 12.5 16.1364C12.8788 16.1364 13.2481 16.1127 13.608 16.0653C13.9678 16.018 14.3371 15.9659 14.7159 15.9091L13.6932 14.8295C13.4848 14.8864 13.286 14.929 13.0966 14.9574C12.9072 14.9858 12.7083 15 12.5 15C11.0795 15 9.87216 14.5028 8.87784 13.5085C7.88352 12.5142 7.38636 11.3068 7.38636 9.88636C7.38636 9.67803 7.40057 9.47917 7.42898 9.28977C7.45739 9.10038 7.5 8.90152 7.55682 8.69318L5.17045 6.36364Z" fill="#333333"/>
</svg>
