<svg width="65" height="65" viewBox="0 0 65 65" fill="none" xmlns="http://www.w3.org/2000/svg">
<rect width="65" height="65" rx="15" fill="#333333"/>
<path d="M34.2658 15.5999C33.1992 14.0389 30.1327 12.2426 27.655 11.7099C26.7662 11.5241 24.1663 11.4993 23.2441 11.6727C22.4108 11.8214 20.2332 12.7257 19.6332 13.147C19.3443 13.3452 19.0666 13.5186 19.0221 13.5186C18.9666 13.5186 18.5555 13.8407 18.0999 14.2248C15.6556 16.306 14.4668 18.5608 13.8446 22.3145C13.6557 23.4047 13.7002 49.3587 13.8779 50.1888C14.0446 50.9321 14.8668 51.8488 15.5334 52.047C16.5556 52.3568 17.7 51.7249 18.1999 50.5976C18.3757 50.2055 18.4671 49.7809 18.4682 49.3512L18.4999 36.8091C18.5444 22.1163 18.4999 22.8224 19.311 20.9889C20.1221 19.1678 21.5331 17.8298 23.3774 17.1608C24.2107 16.8511 24.533 16.8016 25.5773 16.8016C27.4217 16.8016 28.555 17.2352 30.266 18.6103C31.8437 19.8863 32.577 20.0969 33.5214 19.5518C34.8324 18.8085 35.188 16.9502 34.2658 15.5999Z" fill="#92CB7D"/>
<path d="M50.6983 12.8372C50.4428 12.5647 50.0317 12.2674 49.7761 12.1806C48.554 11.7718 47.4096 12.3045 46.943 13.5062C46.7319 14.0637 46.7207 14.3239 46.743 27.0841C46.743 35.6322 46.7096 40.4142 46.6319 41.0212C46.2208 44.2918 44.3542 46.6704 41.5654 47.4633C39.2989 48.1075 37.2101 47.5128 35.0324 45.5926C33.7325 44.4529 33.4992 44.329 32.6881 44.329C31.4104 44.329 30.566 45.1466 30.4438 46.5217C30.3549 47.5128 30.5993 48.157 31.3993 48.9747C32.6992 50.3126 34.8213 51.7126 36.4101 52.2824C41.3543 54.054 46.8763 51.9727 49.6428 47.2898C50.3428 46.1005 50.8428 44.8245 51.1316 43.437C51.4427 41.938 51.5094 38.9399 51.5205 26.6381C51.5205 13.1222 51.5538 13.754 50.6983 12.8372Z" fill="#92CB7D"/>
<path d="M33.6881 29.4999C29.8216 25.6223 28.4883 24.3462 27.9883 24.0489C26.7995 23.3428 25.2885 23.7144 24.6329 24.8789C24.2107 25.6222 24.1441 26.155 24.3552 26.9726C24.5774 27.8274 25.1107 28.4964 26.0662 29.1282C26.5217 29.4255 28.055 30.875 30.0771 32.9315C31.8881 34.7526 34.2325 37.1312 35.2991 38.1966C37.5212 40.4513 37.8878 40.6991 38.8878 40.6248C39.7989 40.5629 40.4099 40.1169 40.7988 39.2497C41.2766 38.1595 41.1099 36.9826 40.3544 36.1277C40.11 35.8552 38.91 34.6535 37.699 33.4642C36.4768 32.2749 34.6769 30.4909 33.6881 29.4999Z" fill="#92CB7D"/>
</svg>
