<svg width="65" height="65" viewBox="0 0 65 65" fill="none" xmlns="http://www.w3.org/2000/svg">
<rect width="65" height="65" rx="15" fill="#FBF5E5"/>
<path d="M34.2658 15.5998C33.1992 14.0389 30.1327 12.2425 27.655 11.7098C26.7662 11.524 24.1663 11.4992 23.2441 11.6726C22.4108 11.8213 20.2332 12.7257 19.6332 13.1469C19.3443 13.3451 19.0666 13.5185 19.0221 13.5185C18.9666 13.5185 18.5555 13.8406 18.0999 14.2247C15.6556 16.306 14.4668 18.5607 13.8446 22.3144C13.6557 23.4046 13.7002 49.3587 13.8779 50.1887C14.0446 50.932 14.8668 51.8488 15.5334 52.047C16.5556 52.3567 17.7 51.7249 18.1999 50.5975C18.3757 50.2055 18.4671 49.7808 18.4682 49.3512L18.4999 36.8091C18.5444 22.1163 18.4999 22.8224 19.311 20.9889C20.1221 19.1677 21.5331 17.8298 23.3774 17.1608C24.2107 16.8511 24.533 16.8015 25.5773 16.8015C27.4217 16.8015 28.555 17.2351 30.266 18.6102C31.8437 19.8863 32.577 20.0969 33.5214 19.5518C34.8324 18.8085 35.188 16.9502 34.2658 15.5998Z" fill="#8EC07C"/>
<path d="M50.6983 12.8372C50.4428 12.5646 50.0317 12.2673 49.7761 12.1806C48.554 11.7718 47.4096 12.3045 46.943 13.5062C46.7319 14.0636 46.7207 14.3238 46.743 27.084C46.743 35.6321 46.7096 40.4141 46.6319 41.0212C46.2208 44.2917 44.3542 46.6703 41.5654 47.4632C39.2989 48.1074 37.2101 47.5128 35.0324 45.5925C33.7325 44.4528 33.4992 44.3289 32.6881 44.3289C31.4104 44.3289 30.566 45.1466 30.4438 46.5217C30.3549 47.5128 30.5993 48.157 31.3993 48.9746C32.6992 50.3126 34.8213 51.7125 36.4101 52.2824C41.3543 54.0539 46.8763 51.9726 49.6428 47.2898C50.3428 46.1005 50.8428 44.8244 51.1316 43.4369C51.4427 41.9379 51.5094 38.9398 51.5205 26.638C51.5205 13.1221 51.5538 13.7539 50.6983 12.8372Z" fill="#8EC07C"/>
<path d="M33.6881 29.4998C29.8216 25.6222 28.4883 24.3462 27.9883 24.0488C26.7995 23.3427 25.2885 23.7143 24.6329 24.8789C24.2107 25.6222 24.1441 26.1549 24.3552 26.9725C24.5774 27.8273 25.1107 28.4963 26.0662 29.1281C26.5217 29.4255 28.055 30.8749 30.0771 32.9314C31.8881 34.7525 34.2325 37.1312 35.2991 38.1966C37.5212 40.4513 37.8878 40.6991 38.8878 40.6247C39.7989 40.5628 40.4099 40.1168 40.7988 39.2496C41.2766 38.1594 41.1099 36.9825 40.3544 36.1277C40.11 35.8551 38.91 34.6534 37.699 33.4641C36.4768 32.2748 34.6769 30.4909 33.6881 29.4998Z" fill="#8EC07C"/>
</svg>
