<svg width="39" height="42" viewBox="0 0 39 42" fill="none" xmlns="http://www.w3.org/2000/svg">
<path d="M21.2658 4.59989C20.1992 3.03894 17.1327 1.24259 14.655 0.709881C13.7662 0.524053 11.1663 0.499272 10.2441 0.672711C9.41083 0.821375 7.23316 1.72574 6.63319 2.14695C6.34432 2.34517 6.06655 2.51861 6.02211 2.51861C5.96656 2.51861 5.55547 2.84071 5.09993 3.22475C2.65561 5.30603 1.46678 7.56076 0.844588 11.3145C0.655709 12.4047 0.700151 38.3587 0.87792 39.1888C1.04458 39.9321 1.86676 40.8488 2.53339 41.047C3.55556 41.3568 4.69995 40.7249 5.19993 39.5976V39.5976C5.37573 39.2055 5.46714 38.7809 5.46823 38.3512L5.49991 25.8091C5.54436 11.1163 5.49991 11.8224 6.31099 9.98892C7.12206 8.1678 8.5331 6.82983 10.3775 6.16085C11.2107 5.85113 11.533 5.80158 12.5773 5.80158C14.4217 5.80158 15.555 6.23518 17.266 7.61031C18.8437 8.88633 19.577 9.09693 20.5214 8.55183C21.8324 7.80852 22.188 5.95024 21.2658 4.59989Z" fill="#FBF5E5"/>
<path d="M37.6983 1.83724C37.4428 1.56469 37.0317 1.26736 36.7761 1.18064C35.554 0.771819 34.4096 1.30453 33.943 2.50622C33.7319 3.06371 33.7207 3.32391 33.743 16.0841C33.743 24.6322 33.7096 29.4142 33.6319 30.0212C33.2208 33.2918 31.3542 35.6704 28.5654 36.4633C26.2989 37.1075 24.2101 36.5128 22.0324 34.5926C20.7325 33.4529 20.4992 33.329 19.6881 33.329C18.4104 33.329 17.566 34.1466 17.4438 35.5217C17.3549 36.5128 17.5993 37.157 18.3993 37.9747C19.6992 39.3126 21.8213 40.7126 23.4101 41.2824C28.3543 43.054 33.8763 40.9727 36.6428 36.2898C37.3428 35.1005 37.8428 33.8245 38.1316 32.437C38.4427 30.938 38.5094 27.9399 38.5205 15.6381C38.5205 2.12221 38.5538 2.75399 37.6983 1.83724Z" fill="#FBF5E5"/>
<path d="M20.6881 18.4999C16.8216 14.6223 15.4883 13.3462 14.9883 13.0489C13.7995 12.3427 12.2885 12.7144 11.6329 13.8789C11.2107 14.6222 11.1441 15.155 11.3552 15.9726C11.5774 16.8274 12.1107 17.4964 13.0662 18.1282C13.5217 18.4255 15.055 19.875 17.0771 21.9315C18.8881 23.7526 21.2325 26.1312 22.2991 27.1966C24.5212 29.4513 24.8878 29.6991 25.8878 29.6248C26.7989 29.5629 27.4099 29.1169 27.7988 28.2497C28.2766 27.1595 28.1099 25.9826 27.3544 25.1277C27.11 24.8552 25.91 23.6535 24.699 22.4642C23.4768 21.2749 21.6769 19.4909 20.6881 18.4999Z" fill="#FBF5E5"/>
</svg>
